<mxfile host="app.diagrams.net" modified="2024-01-09T09:41:18.864Z" agent="Mozilla/5.0 (Windows NT 10.0; Win64; x64) AppleWebKit/537.36 (KHTML, like Gecko) Chrome/120.0.0.0 Safari/537.36 Edg/120.0.0.0" etag="IfHEoEUG0PA8YhfQH9Nj" version="22.1.17" type="github" pages="3">
  <diagram name="BlockDiagram-all" id="97916047-d0de-89f5-080d-49f4d83e522f">
    <mxGraphModel dx="1386" dy="785" grid="1" gridSize="10" guides="1" tooltips="1" connect="1" arrows="1" fold="1" page="1" pageScale="1.5" pageWidth="1169" pageHeight="827" background="none" math="0" shadow="0">
      <root>
        <mxCell id="0" />
        <mxCell id="1" parent="0" />
        <mxCell id="3" value="EABS CPU Module Software" style="rounded=0;shadow=1;fontStyle=1;fontSize=14;align=left;verticalAlign=top;" parent="1" vertex="1">
          <mxGeometry x="380" y="140" width="460" height="320" as="geometry" />
        </mxCell>
        <mxCell id="2xnklOY3mkxwDWEgLXTY-56" value="H/W" style="rounded=0;shadow=1;fontStyle=1;fontSize=28;align=center;verticalAlign=middle;spacing=2;" parent="1" vertex="1">
          <mxGeometry x="380" y="460" width="460" height="70" as="geometry" />
        </mxCell>
        <mxCell id="2xnklOY3mkxwDWEgLXTY-57" value="SafeRTOS" style="rounded=0;shadow=1;fontStyle=1;fontSize=24;align=center;verticalAlign=middle;" parent="1" vertex="1">
          <mxGeometry x="390" y="340" width="250" height="110" as="geometry" />
        </mxCell>
        <mxCell id="2xnklOY3mkxwDWEgLXTY-58" value="Device Driver" style="rounded=0;shadow=1;fontStyle=1;fontSize=24;align=center;verticalAlign=middle;" parent="1" vertex="1">
          <mxGeometry x="650" y="340" width="180" height="110" as="geometry" />
        </mxCell>
        <mxCell id="2xnklOY3mkxwDWEgLXTY-59" value="EABS CPU Module Application" style="rounded=0;shadow=1;fontStyle=1;fontSize=14;align=center;verticalAlign=middle;" parent="1" vertex="1">
          <mxGeometry x="390" y="170" width="440" height="160" as="geometry" />
        </mxCell>
        <mxCell id="2xnklOY3mkxwDWEgLXTY-60" value="EABS I/O Module Software" style="rounded=0;shadow=1;fontStyle=1;fontSize=14;align=left;verticalAlign=top;" parent="1" vertex="1">
          <mxGeometry x="852" y="140" width="460" height="320" as="geometry" />
        </mxCell>
        <mxCell id="2xnklOY3mkxwDWEgLXTY-61" value="H/W" style="rounded=0;shadow=1;fontStyle=1;fontSize=28;align=center;verticalAlign=middle;spacing=2;fillColor=#f5f5f5;fontColor=#333333;strokeColor=#666666;" parent="1" vertex="1">
          <mxGeometry x="852" y="460" width="460" height="70" as="geometry" />
        </mxCell>
        <mxCell id="2xnklOY3mkxwDWEgLXTY-63" value="Device Driver" style="rounded=0;shadow=1;fontStyle=1;fontSize=24;align=center;verticalAlign=middle;" parent="1" vertex="1">
          <mxGeometry x="860" y="380" width="442" height="70" as="geometry" />
        </mxCell>
        <mxCell id="2xnklOY3mkxwDWEgLXTY-64" value="EABS I/O Module Application" style="rounded=0;shadow=1;fontStyle=1;fontSize=14;align=center;verticalAlign=middle;" parent="1" vertex="1">
          <mxGeometry x="862" y="170" width="440" height="200" as="geometry" />
        </mxCell>
        <mxCell id="Bs_QZ7SmaoqHRqGBBxqq-3" value="EABS CPU Module Software" style="rounded=0;shadow=1;fontStyle=1;fontSize=14;align=left;verticalAlign=top;" parent="1" vertex="1">
          <mxGeometry x="381" y="554" width="460" height="320" as="geometry" />
        </mxCell>
        <mxCell id="Bs_QZ7SmaoqHRqGBBxqq-4" value="H/W" style="rounded=0;shadow=1;fontStyle=1;fontSize=28;align=center;verticalAlign=middle;spacing=2;" parent="1" vertex="1">
          <mxGeometry x="381" y="874" width="460" height="70" as="geometry" />
        </mxCell>
        <mxCell id="Bs_QZ7SmaoqHRqGBBxqq-5" value="SafeRTOS" style="rounded=0;shadow=1;fontStyle=1;fontSize=24;align=center;verticalAlign=middle;" parent="1" vertex="1">
          <mxGeometry x="391" y="754" width="169" height="110" as="geometry" />
        </mxCell>
        <mxCell id="Bs_QZ7SmaoqHRqGBBxqq-6" value="Device Driver" style="rounded=0;shadow=1;fontStyle=1;fontSize=24;align=center;verticalAlign=middle;whiteSpace=wrap;" parent="1" vertex="1">
          <mxGeometry x="690" y="754" width="141" height="110" as="geometry" />
        </mxCell>
        <mxCell id="Bs_QZ7SmaoqHRqGBBxqq-7" value="EABS CPU Module Application" style="rounded=0;shadow=1;fontStyle=1;fontSize=14;align=center;verticalAlign=middle;" parent="1" vertex="1">
          <mxGeometry x="391" y="584" width="440" height="160" as="geometry" />
        </mxCell>
        <mxCell id="Bs_QZ7SmaoqHRqGBBxqq-8" value="EABS I/O Module Software" style="rounded=0;shadow=1;fontStyle=1;fontSize=14;align=left;verticalAlign=top;" parent="1" vertex="1">
          <mxGeometry x="853" y="554" width="460" height="320" as="geometry" />
        </mxCell>
        <mxCell id="Bs_QZ7SmaoqHRqGBBxqq-9" value="H/W" style="rounded=0;shadow=1;fontStyle=1;fontSize=28;align=center;verticalAlign=middle;spacing=2;fillColor=#f5f5f5;fontColor=#333333;strokeColor=#666666;" parent="1" vertex="1">
          <mxGeometry x="853" y="874" width="460" height="70" as="geometry" />
        </mxCell>
        <mxCell id="Bs_QZ7SmaoqHRqGBBxqq-10" value="Device Driver" style="rounded=0;shadow=1;fontStyle=1;fontSize=24;align=center;verticalAlign=middle;" parent="1" vertex="1">
          <mxGeometry x="861" y="794" width="442" height="70" as="geometry" />
        </mxCell>
        <mxCell id="Bs_QZ7SmaoqHRqGBBxqq-11" value="EABS I/O Module Application" style="rounded=0;shadow=1;fontStyle=1;fontSize=14;align=center;verticalAlign=middle;" parent="1" vertex="1">
          <mxGeometry x="863" y="584" width="440" height="200" as="geometry" />
        </mxCell>
        <mxCell id="Bs_QZ7SmaoqHRqGBBxqq-12" value="Self-Test Library" style="rounded=0;shadow=1;fontStyle=1;fontSize=24;align=center;verticalAlign=middle;whiteSpace=wrap;" parent="1" vertex="1">
          <mxGeometry x="570" y="754" width="110" height="110" as="geometry" />
        </mxCell>
      </root>
    </mxGraphModel>
  </diagram>
  <diagram id="455bVY7fYw622vmdx8sA" name="IO-Module-Block-Diagram">
    <mxGraphModel dx="559" dy="785" grid="1" gridSize="10" guides="1" tooltips="1" connect="1" arrows="1" fold="1" page="1" pageScale="1" pageWidth="827" pageHeight="1169" math="0" shadow="0">
      <root>
        <mxCell id="0" />
        <mxCell id="1" parent="0" />
        <mxCell id="_B_MI62m7lRFY5nyLYBk-1" value="EABS I/O Module Software" style="rounded=0;shadow=1;fontStyle=1;fontSize=14;align=left;verticalAlign=top;" parent="1" vertex="1">
          <mxGeometry x="1070" y="350" width="460" height="320" as="geometry" />
        </mxCell>
        <mxCell id="_B_MI62m7lRFY5nyLYBk-2" value="H/W" style="rounded=0;shadow=1;fontStyle=1;fontSize=28;align=center;verticalAlign=middle;spacing=2;fillColor=#f5f5f5;fontColor=#333333;strokeColor=#666666;" parent="1" vertex="1">
          <mxGeometry x="1070" y="670" width="460" height="70" as="geometry" />
        </mxCell>
        <mxCell id="_B_MI62m7lRFY5nyLYBk-3" value="Device Driver" style="rounded=0;shadow=1;fontStyle=1;fontSize=24;align=center;verticalAlign=middle;" parent="1" vertex="1">
          <mxGeometry x="1078" y="590" width="442" height="70" as="geometry" />
        </mxCell>
        <mxCell id="_B_MI62m7lRFY5nyLYBk-4" value="EABS I/O Module Application" style="rounded=0;shadow=1;fontStyle=1;fontSize=14;align=center;verticalAlign=middle;" parent="1" vertex="1">
          <mxGeometry x="1080" y="380" width="440" height="200" as="geometry" />
        </mxCell>
      </root>
    </mxGraphModel>
  </diagram>
  <diagram id="JroDJEas-RoF1u3BaSrB" name="페이지-3">
    <mxGraphModel dx="1386" dy="785" grid="1" gridSize="10" guides="1" tooltips="1" connect="1" arrows="1" fold="1" page="1" pageScale="1" pageWidth="827" pageHeight="1169" math="0" shadow="0">
      <root>
        <mxCell id="0" />
        <mxCell id="1" parent="0" />
        <mxCell id="T9ecZK-UZPm5lxIUy5vb-36" value="" style="rounded=0;whiteSpace=wrap;html=1;dashed=1;" vertex="1" parent="1">
          <mxGeometry x="70" y="45" width="290" height="1035" as="geometry" />
        </mxCell>
        <mxCell id="Xisn77rioX8W527mqWxI-2" value="Initialize hardware" style="rounded=0;whiteSpace=wrap;html=1;" vertex="1" parent="1">
          <mxGeometry x="153" y="95" width="170" height="35" as="geometry" />
        </mxCell>
        <mxCell id="Xisn77rioX8W527mqWxI-9" value="IO Application" style="text;html=1;strokeColor=none;fillColor=none;align=center;verticalAlign=middle;whiteSpace=wrap;rounded=0;" vertex="1" parent="1">
          <mxGeometry x="73" y="50" width="87" height="30" as="geometry" />
        </mxCell>
        <mxCell id="Xisn77rioX8W527mqWxI-18" value="" style="rounded=0;whiteSpace=wrap;html=1;dashed=1;" vertex="1" parent="1">
          <mxGeometry x="422" y="60" width="278" height="340" as="geometry" />
        </mxCell>
        <mxCell id="Xisn77rioX8W527mqWxI-23" value="Interrupt&amp;nbsp; Routines" style="text;html=1;strokeColor=none;fillColor=none;align=center;verticalAlign=middle;whiteSpace=wrap;rounded=0;" vertex="1" parent="1">
          <mxGeometry x="425" y="70" width="127" height="30" as="geometry" />
        </mxCell>
        <mxCell id="Xisn77rioX8W527mqWxI-29" value="USART2_IRQHandler" style="shape=process;whiteSpace=wrap;html=1;backgroundOutline=1;" vertex="1" parent="1">
          <mxGeometry x="470" y="138" width="177" height="30" as="geometry" />
        </mxCell>
        <mxCell id="T9ecZK-UZPm5lxIUy5vb-4" value="Initialize global variable" style="rounded=0;whiteSpace=wrap;html=1;" vertex="1" parent="1">
          <mxGeometry x="152" y="153" width="170" height="35" as="geometry" />
        </mxCell>
        <mxCell id="T9ecZK-UZPm5lxIUy5vb-6" value="Initialize LED, FND" style="rounded=0;whiteSpace=wrap;html=1;" vertex="1" parent="1">
          <mxGeometry x="152" y="210" width="170" height="35" as="geometry" />
        </mxCell>
        <mxCell id="T9ecZK-UZPm5lxIUy5vb-8" value="vCLI_Command" style="rounded=0;whiteSpace=wrap;html=1;" vertex="1" parent="1">
          <mxGeometry x="151" y="268" width="170" height="35" as="geometry" />
        </mxCell>
        <mxCell id="T9ecZK-UZPm5lxIUy5vb-10" value="vRS485_Recv" style="rounded=0;whiteSpace=wrap;html=1;" vertex="1" parent="1">
          <mxGeometry x="151" y="327" width="170" height="35" as="geometry" />
        </mxCell>
        <mxCell id="T9ecZK-UZPm5lxIUy5vb-12" value="vChannel_Master_Recv" style="rounded=0;whiteSpace=wrap;html=1;" vertex="1" parent="1">
          <mxGeometry x="150" y="385" width="170" height="35" as="geometry" />
        </mxCell>
        <mxCell id="T9ecZK-UZPm5lxIUy5vb-14" value="vChannel_Slave_Recv" style="rounded=0;whiteSpace=wrap;html=1;" vertex="1" parent="1">
          <mxGeometry x="150" y="442" width="170" height="35" as="geometry" />
        </mxCell>
        <mxCell id="T9ecZK-UZPm5lxIUy5vb-16" value="vCAN0InOutProcess" style="rounded=0;whiteSpace=wrap;html=1;" vertex="1" parent="1">
          <mxGeometry x="149" y="500" width="170" height="35" as="geometry" />
        </mxCell>
        <mxCell id="T9ecZK-UZPm5lxIUy5vb-18" value="vDisplayFndPoll" style="rounded=0;whiteSpace=wrap;html=1;" vertex="1" parent="1">
          <mxGeometry x="149" y="557" width="170" height="35" as="geometry" />
        </mxCell>
        <mxCell id="T9ecZK-UZPm5lxIUy5vb-20" value="vChOut2Poll" style="rounded=0;whiteSpace=wrap;html=1;" vertex="1" parent="1">
          <mxGeometry x="148" y="615" width="170" height="35" as="geometry" />
        </mxCell>
        <mxCell id="T9ecZK-UZPm5lxIUy5vb-22" value="vChannel_Send01_Poll" style="rounded=0;whiteSpace=wrap;html=1;" vertex="1" parent="1">
          <mxGeometry x="148" y="672" width="170" height="35" as="geometry" />
        </mxCell>
        <mxCell id="T9ecZK-UZPm5lxIUy5vb-24" value="vChannel_Common01_Poll" style="rounded=0;whiteSpace=wrap;html=1;" vertex="1" parent="1">
          <mxGeometry x="147" y="730" width="170" height="35" as="geometry" />
        </mxCell>
        <mxCell id="T9ecZK-UZPm5lxIUy5vb-27" value="vPort_IN1_8Process" style="rounded=0;whiteSpace=wrap;html=1;" vertex="1" parent="1">
          <mxGeometry x="147" y="787" width="170" height="35" as="geometry" />
        </mxCell>
        <mxCell id="T9ecZK-UZPm5lxIUy5vb-29" value="vCpuIn05Poll" style="rounded=0;whiteSpace=wrap;html=1;" vertex="1" parent="1">
          <mxGeometry x="146" y="845" width="170" height="35" as="geometry" />
        </mxCell>
        <mxCell id="T9ecZK-UZPm5lxIUy5vb-31" value="vInCpuRS485_Poll" style="rounded=0;whiteSpace=wrap;html=1;" vertex="1" parent="1">
          <mxGeometry x="146" y="902" width="170" height="35" as="geometry" />
        </mxCell>
        <mxCell id="T9ecZK-UZPm5lxIUy5vb-33" value="vLEDRunFailPoll" style="rounded=0;whiteSpace=wrap;html=1;" vertex="1" parent="1">
          <mxGeometry x="145" y="960" width="170" height="35" as="geometry" />
        </mxCell>
        <mxCell id="T9ecZK-UZPm5lxIUy5vb-35" value="vPSU_ErrorCheck" style="rounded=0;whiteSpace=wrap;html=1;" vertex="1" parent="1">
          <mxGeometry x="145" y="1019" width="170" height="35" as="geometry" />
        </mxCell>
        <mxCell id="T9ecZK-UZPm5lxIUy5vb-37" value="USART5_IRQHandler" style="shape=process;whiteSpace=wrap;html=1;backgroundOutline=1;" vertex="1" parent="1">
          <mxGeometry x="470" y="188" width="178" height="30" as="geometry" />
        </mxCell>
        <mxCell id="T9ecZK-UZPm5lxIUy5vb-38" value="CAN0_RX1_IRQHandler" style="shape=process;whiteSpace=wrap;html=1;backgroundOutline=1;" vertex="1" parent="1">
          <mxGeometry x="470" y="238" width="178" height="30" as="geometry" />
        </mxCell>
      </root>
    </mxGraphModel>
  </diagram>
</mxfile>
